<?xml version="1.0" encoding="utf-8"?>
<!-- Svg Vector Icons : http://www.onlinewebfonts.com/icon -->
<!DOCTYPE svg PUBLIC "-//W3C//DTD SVG 1.1//EN" "http://www.w3.org/Graphics/SVG/1.1/DTD/svg11.dtd">
<svg version="1.1" xmlns="http://www.w3.org/2000/svg" xmlns:xlink="http://www.w3.org/1999/xlink" x="0px" y="0px" viewBox="0 0 1000 1000" enable-background="new 0 0 1000 1000" xml:space="preserve">
<metadata> Svg Vector Icons : http://www.onlinewebfonts.com/icon </metadata>
<g fill='white'><g><g>
  <polygon points="500.1,51.1 500.3,51.1 528.3,88.5 557.2,88.5 557.2,21.7 532,21.7 532,58.8 531.7,58.8 504.9,21.7 474.8,21.7 474.8,88.5 500.1,88.5 "/><path d="M532.7,934.7l-31.5-4.7c-1.3-0.2-2.2-0.5-2.7-1.2c-0.5-0.6-0.8-1.3-0.8-2.2c0-1.5,0.8-2.6,2.3-3.5c1.5-0.9,4.3-1.3,8.2-1.3c1.4,0,2.9,0.1,4.3,0.3c1.5,0.2,2.8,0.6,3.9,1.1c1.3,0.5,2.3,1.2,3,2c0.7,0.8,1.1,2,1.1,3.3h30.6c-0.2-3.6-1.2-6.7-2.9-9.4c-1.7-2.7-4.3-5-7.8-6.8c-3.5-1.9-7.8-3.3-13.1-4.2c-5.3-1-11.7-1.5-19.1-1.5c-5.4,0-10.5,0.4-15.2,1c-4.7,0.6-8.8,1.8-12.3,3.5c-3.5,1.7-6.2,3.9-8.2,6.8c-2,2.9-3,6.4-3,10.7c0,2.4,0.4,4.6,1,6.6c0.7,2.1,1.7,3.9,3.2,5.5c1.5,1.6,3.4,3,5.6,4.2c2.3,1.1,5.1,2,8.4,2.5L518,952c1.8,0.3,3.1,0.9,3.8,1.7c0.7,0.8,1,1.8,1,2.8c0,1.6-0.7,2.9-2.1,3.9c-1.4,1-4.2,1.5-8.3,1.5c-4.1,0-7-0.4-9-1.4c-1.8-1-2.7-2.6-2.8-4.8h-31.8c0,4.9,1.2,8.8,3.8,11.8c2.5,2.9,5.8,5.2,9.9,6.8c4.1,1.6,8.6,2.7,13.7,3.1c5.1,0.5,10.1,0.7,15.1,0.7c14.8,0,25.7-1.9,32.6-5.8c6.9-3.9,10.3-9.9,10.3-18.1c0-5.7-1.9-10.1-5.7-13.3C544.7,937.8,539.4,935.7,532.7,934.7z"/><polygon points="85.1,500.7 84.9,500.7 75.2,460 54.1,460 44.3,500.7 44.1,500.7 35.5,460 10,460 29.4,526.8 55.3,526.8 64.5,489.7 64.7,489.7 73.8,526.8 99.7,526.8 119.2,460 93.7,460 "/><polygon points="990,472 990,455.8 919,455.8 919,522.6 990,522.6 990,506.3 945.4,506.3 945.4,497.3 986.8,497.3 986.8,481 945.4,481 945.4,472 "/></g></g><g></g><g></g><g></g><g></g><g></g><g></g><g></g><g></g><g></g><g></g><g></g><g></g><g></g><g></g><g></g></g>
</svg>